# xmcd
#
# Track frame offsets:
#	150
#	17388
#	36000
#	54763
#	71893
#	91720
#	110013
#	129870
#	149963
#	171325
#
# Disc length: 2602 seconds
#
# Revision: 5
# Processed by: cddbd v1.5.1PL2 Copyright (c) Steve Scherf et al.
# Submitted via: dBpowerAMP V4.0
#
DISCID=840a280a
DTITLE=Various Artist - Steppin' Country
DYEAR=1993
DGENRE=Country
TTITLE0=Collin Raye - I Want You Bad (and that ain't good)
TTITLE1=Dolly Parton - Romeo
TTITLE2=Ricky Van Shelton - Heartache Big As Texas
TTITLE3=Joe Diffie - Honky Tonk Attitude
TTITLE4=Mary-Chapin Carpenter - Down At The Twist And Shout
TTITLE5=Ricky Van Shelton - Wild Man
TTITLE6=Gibson Miller Band - Texas Tattoo
TTITLE7=Mary-Chapin Carpenter - I Feel Lucky
TTITLE8=Larry Boone - Get In Line
TTITLE9=Stacy Dean Campbell - Rosalee
EXTD=
EXTT0=
EXTT1=
EXTT2=
EXTT3=
EXTT4=
EXTT5=
EXTT6=
EXTT7=
EXTT8=
EXTT9=
PLAYORDER=
